<svg width="512" height="512" viewBox="0 0 512 512" fill="none" xmlns="http://www.w3.org/2000/svg">
<g clip-path="url(#clip0_7_32)">
<rect x="13.5" y="13.5" width="485" height="485" rx="92.5" stroke="white" stroke-width="27"/>
<path d="M402.134 240H352.211L352.522 216.653C352.523 216.627 352.523 216.6 352.523 216.574C352.523 216.549 352.523 216.525 352.523 216.5C352.523 215.185 352.511 213.877 352.499 212.575C352.463 208.728 352.427 204.938 352.71 201.212C352.893 198.812 353.186 196.883 353.57 195.431C353.874 194.281 354.14 193.796 354.188 193.707C356.427 191.113 360.506 188.5 371.345 188.5H404C410.351 188.5 415.5 183.351 415.5 177V117.5C415.5 111.272 410.542 106.175 404.316 106.004L349.736 104.504C349.631 104.501 349.525 104.5 349.42 104.5C320.586 104.5 301.502 118.079 287.159 133.864C278.647 141.734 273.428 154.615 270.237 166.84C266.841 179.851 265.147 194.482 265.147 207.5V240H223C216.649 240 211.5 245.149 211.5 251.5V319C211.5 325.351 216.649 330.5 223 330.5H265.147V506C265.147 512.351 270.296 517.5 276.647 517.5H341.023C347.374 517.5 352.523 512.351 352.523 506V330.5H393.737C399.539 330.5 404.433 326.178 405.149 320.42L413.546 252.92C413.953 249.647 412.936 246.358 410.753 243.887C408.57 241.415 405.431 240 402.134 240Z" stroke="white" stroke-width="23" stroke-linejoin="round"/>
</g>
<defs>
<clipPath id="clip0_7_32">
<rect width="512" height="512" fill="white"/>
</clipPath>
</defs>
</svg>
