<svg width="512" height="512" viewBox="0 0 512 512" fill="none" xmlns="http://www.w3.org/2000/svg">
<g clip-path="url(#clip0_7_16)">
<rect x="13.5" y="13.5" width="485" height="485" rx="92.5" stroke="white" stroke-width="27"/>
<path d="M291.211 192.224C290.492 186.565 285.659 182.189 279.804 182.189L217.257 182.189C210.906 182.189 205.757 187.338 205.757 193.689V410C205.757 416.351 210.906 421.5 217.257 421.5H283.018C289.369 421.5 294.518 416.351 294.518 410V304.045L294.518 303.354C294.517 296.261 294.517 289.725 294.945 283.963C295.405 277.778 296.284 273.959 297.267 271.965C299.522 267.39 302.782 262.616 310.843 259.282C320.509 257.321 329.747 257.762 335.835 264.115C338.336 266.725 340.276 271.161 341.361 278.512C342.443 285.832 342.466 294.342 342.466 304.045V410C342.466 416.351 347.615 421.5 353.966 421.5H419.03C425.381 421.5 430.53 416.351 430.53 410V292.521C430.53 281.264 429.839 269.44 428.762 259.191C427.712 249.205 426.211 239.868 424.341 234.011C418.32 215.164 408.139 201.629 397.913 193.205C397.486 192.853 397.034 192.532 396.56 192.245C381.626 183.197 367.044 176.595 344.138 176.595C326.103 176.595 306.854 180.477 291.211 192.224ZM85.4144 410C85.4144 416.351 90.5631 421.5 96.9144 421.5H160.801C167.153 421.5 172.301 416.351 172.301 410V193.689C172.301 187.338 167.153 182.189 160.801 182.189L96.9144 182.189C90.5631 182.189 85.4144 187.338 85.4144 193.689V410Z" stroke="white" stroke-width="23" stroke-linejoin="round"/>
<circle cx="127" cy="117" r="35" stroke="white" stroke-width="20"/>
</g>
<defs>
<clipPath id="clip0_7_16">
<rect width="512" height="512" fill="white"/>
</clipPath>
</defs>
</svg>
