<?xml version="1.0" standalone="no"?><svg xmlns="http://www.w3.org/2000/svg" viewBox="0 0 1440 320"><path fill="#0099ff" fill-opacity="1" d="M0,128L21.8,133.3C43.6,139,87,149,131,149.3C174.5,149,218,139,262,138.7C305.5,139,349,149,393,133.3C436.4,117,480,75,524,53.3C567.3,32,611,32,655,42.7C698.2,53,742,75,785,117.3C829.1,160,873,224,916,229.3C960,235,1004,181,1047,133.3C1090.9,85,1135,43,1178,64C1221.8,85,1265,171,1309,224C1352.7,277,1396,299,1418,309.3L1440,320L1440,0L1418.2,0C1396.4,0,1353,0,1309,0C1265.5,0,1222,0,1178,0C1134.5,0,1091,0,1047,0C1003.6,0,960,0,916,0C872.7,0,829,0,785,0C741.8,0,698,0,655,0C610.9,0,567,0,524,0C480,0,436,0,393,0C349.1,0,305,0,262,0C218.2,0,175,0,131,0C87.3,0,44,0,22,0L0,0Z"></path></svg>