<svg width="336" height="342" viewBox="0 0 336 342" fill="none" xmlns="http://www.w3.org/2000/svg">
<path fill-rule="evenodd" clip-rule="evenodd" d="M13 13L149.769 79.5V264L13 329.5V13ZM120.895 97L42.3799 58.5V285L120.895 245.5V97Z" fill="white" stroke="white" stroke-width="25" stroke-linejoin="round"/>
<path d="M323.009 13L186.24 79.5V166L293.629 212V285L215.114 245.5V226L186.24 214.25V264L323.009 329.5V192L215.114 146V97L293.629 58.5V106L323.009 92V13Z" fill="white" stroke="white" stroke-width="25" stroke-linejoin="round"/>
<path d="M135 173.5V90.5L26 34V308L135 254.5V217" stroke="#7019FF" stroke-width="14" stroke-linecap="round" stroke-linejoin="round"/>
<path d="M135 194C142.732 194 149 187.732 149 180C149 172.268 142.732 166 135 166C127.268 166 121 172.268 121 180C121 187.732 127.268 194 135 194Z" fill="#7019FF"/>
<path d="M308.825 82.5V34L200.424 89V156L241.961 175M200.424 231.5V256L308.825 304.5V201L283.498 190.5" stroke="#7019FF" stroke-width="14" stroke-linecap="round" stroke-linejoin="round"/>
<path d="M250 192C257.732 192 264 185.732 264 178C264 170.268 257.732 164 250 164C242.268 164 236 170.268 236 178C236 185.732 242.268 192 250 192Z" fill="#7019FF"/>
</svg>
